<mxfile host="65bd71144e">
    <diagram id="0Psh6iuW7GssUp9ffrjz" name="Page-1">
        <mxGraphModel dx="2198" dy="1351" grid="0" gridSize="10" guides="1" tooltips="1" connect="1" arrows="1" fold="1" page="0" pageScale="1" pageWidth="827" pageHeight="1169" background="#ffffff" math="0" shadow="0">
            <root>
                <mxCell id="0"/>
                <mxCell id="1" parent="0"/>
                <mxCell id="62" style="edgeStyle=none;html=1;exitX=0.033;exitY=0.683;exitDx=0;exitDy=0;entryX=1;entryY=0.5;entryDx=0;entryDy=0;labelBackgroundColor=#000000;labelBorderColor=#000000;fontSize=14;fontColor=#000000;strokeColor=#000000;exitPerimeter=0;rounded=0;fontFamily=Times New Roman;" parent="1" source="63" edge="1">
                    <mxGeometry relative="1" as="geometry">
                        <mxPoint x="-427.96000000000004" y="-489.1700000000001" as="sourcePoint"/>
                        <mxPoint x="-589" y="-489" as="targetPoint"/>
                        <Array as="points">
                            <mxPoint x="-511" y="-489"/>
                        </Array>
                    </mxGeometry>
                </mxCell>
                <mxCell id="63" value="Registration&lt;br style=&quot;font-size: 14px;&quot;&gt;1.0" style="shape=ellipse;html=1;dashed=0;whitespace=wrap;perimeter=ellipsePerimeter;labelBackgroundColor=#FFFFFF;fontSize=14;fontColor=#000000;strokeColor=#000000;fillColor=#FFFFFF;fontStyle=1;fontFamily=Times New Roman;" parent="1" vertex="1">
                    <mxGeometry x="-430" y="-537" width="130" height="70" as="geometry"/>
                </mxCell>
                <mxCell id="65" style="edgeStyle=elbowEdgeStyle;html=1;labelBackgroundColor=#000000;labelBorderColor=#000000;fontSize=14;fontColor=#000000;strokeColor=#000000;exitX=0.016;exitY=0.647;exitDx=0;exitDy=0;exitPerimeter=0;rounded=0;fontFamily=Times New Roman;entryX=0.715;entryY=0.994;entryDx=0;entryDy=0;entryPerimeter=0;" parent="1" source="66" target="79" edge="1">
                    <mxGeometry relative="1" as="geometry">
                        <mxPoint x="-427.35000000000036" y="-374.5699999999997" as="sourcePoint"/>
                        <mxPoint x="-651" y="-530" as="targetPoint"/>
                        <Array as="points">
                            <mxPoint x="-651" y="-335"/>
                            <mxPoint x="-651" y="-449"/>
                        </Array>
                    </mxGeometry>
                </mxCell>
                <mxCell id="66" value="Manage&lt;br&gt;Profile&lt;br&gt;3.0" style="shape=ellipse;html=1;dashed=0;whitespace=wrap;perimeter=ellipsePerimeter;labelBackgroundColor=#FFFFFF;fontSize=14;fontColor=#000000;strokeColor=#000000;fillColor=#FFFFFF;fontStyle=1;fontFamily=Times New Roman;" parent="1" vertex="1">
                    <mxGeometry x="-430" y="-370" width="130" height="70" as="geometry"/>
                </mxCell>
                <mxCell id="67" style="edgeStyle=elbowEdgeStyle;html=1;exitX=0.036;exitY=0.729;exitDx=0;exitDy=0;labelBackgroundColor=#000000;labelBorderColor=#000000;fontSize=14;fontColor=#000000;strokeColor=#000000;rounded=0;fontFamily=Times New Roman;exitPerimeter=0;entryX=0.396;entryY=0.997;entryDx=0;entryDy=0;entryPerimeter=0;startArrow=none;" parent="1" target="79" edge="1">
                    <mxGeometry relative="1" as="geometry">
                        <mxPoint x="-427.31999999999994" y="-164.97000000000003" as="sourcePoint"/>
                        <mxPoint x="-722.9999999999999" y="-493" as="targetPoint"/>
                        <Array as="points">
                            <mxPoint x="-722" y="-165"/>
                            <mxPoint x="-672" y="-166"/>
                            <mxPoint x="-722" y="-336"/>
                            <mxPoint x="-700" y="-519"/>
                            <mxPoint x="-730" y="-409"/>
                        </Array>
                    </mxGeometry>
                </mxCell>
                <mxCell id="68" value="Surch&lt;br&gt;Product&lt;br&gt;5.0" style="shape=ellipse;html=1;dashed=0;whitespace=wrap;perimeter=ellipsePerimeter;labelBackgroundColor=#FFFFFF;fontSize=14;fontColor=#000000;strokeColor=#000000;fillColor=#FFFFFF;fontStyle=1;fontFamily=Times New Roman;" parent="1" vertex="1">
                    <mxGeometry x="-430" y="-210" width="130" height="70" as="geometry"/>
                </mxCell>
                <mxCell id="70" value="Make Order&lt;br style=&quot;font-size: 14px&quot;&gt;6.0" style="shape=ellipse;html=1;dashed=0;whitespace=wrap;perimeter=ellipsePerimeter;labelBackgroundColor=#FFFFFF;fontSize=14;fontColor=#000000;strokeColor=#000000;fillColor=#FFFFFF;fontStyle=1;fontFamily=Times New Roman;" parent="1" vertex="1">
                    <mxGeometry x="-428" y="-130" width="130" height="70" as="geometry"/>
                </mxCell>
                <mxCell id="71" style="edgeStyle=elbowEdgeStyle;html=1;labelBackgroundColor=#000000;labelBorderColor=#000000;fontSize=14;fontColor=#000000;strokeColor=#000000;rounded=0;fontFamily=Times New Roman;exitX=0.042;exitY=0.71;exitDx=0;exitDy=0;exitPerimeter=0;entryX=0.055;entryY=1.005;entryDx=0;entryDy=0;entryPerimeter=0;" parent="1" source="72" target="79" edge="1">
                    <mxGeometry relative="1" as="geometry">
                        <mxPoint x="-440" as="sourcePoint"/>
                        <mxPoint x="-797" y="-480" as="targetPoint"/>
                        <Array as="points">
                            <mxPoint x="-797" y="-510"/>
                            <mxPoint x="-800" y="-460"/>
                            <mxPoint x="-797" y="-10"/>
                            <mxPoint x="-797" y="-289"/>
                        </Array>
                    </mxGeometry>
                </mxCell>
                <mxCell id="72" value="Make Payment&lt;br style=&quot;font-size: 14px&quot;&gt;7.0" style="shape=ellipse;html=1;dashed=0;whitespace=wrap;perimeter=ellipsePerimeter;labelBackgroundColor=#FFFFFF;fontSize=14;fontColor=#000000;strokeColor=#000000;fillColor=#FFFFFF;fontStyle=1;fontFamily=Times New Roman;" parent="1" vertex="1">
                    <mxGeometry x="-430" y="-50" width="130" height="70" as="geometry"/>
                </mxCell>
                <mxCell id="73" style="edgeStyle=none;html=1;labelBackgroundColor=#000000;labelBorderColor=#000000;fontSize=14;fontColor=#000000;strokeColor=#000000;entryX=0.013;entryY=0.357;entryDx=0;entryDy=0;entryPerimeter=0;fontFamily=Times New Roman;" parent="1" edge="1">
                    <mxGeometry relative="1" as="geometry">
                        <mxPoint x="-588.69" y="-507.99" as="sourcePoint"/>
                        <mxPoint x="-428.99999999999994" y="-508" as="targetPoint"/>
                    </mxGeometry>
                </mxCell>
                <mxCell id="75" style="edgeStyle=elbowEdgeStyle;html=1;exitX=0.77;exitY=1;exitDx=0;exitDy=0;labelBackgroundColor=#000000;labelBorderColor=#000000;fontSize=14;fontColor=#000000;strokeColor=#000000;rounded=0;fontFamily=Times New Roman;entryX=0.04;entryY=0.302;entryDx=0;entryDy=0;entryPerimeter=0;exitPerimeter=0;" parent="1" source="79" target="66" edge="1">
                    <mxGeometry relative="1" as="geometry">
                        <mxPoint x="-638.5" y="-504.32999999999953" as="sourcePoint"/>
                        <mxPoint x="-430" y="-363" as="targetPoint"/>
                        <Array as="points">
                            <mxPoint x="-638.5" y="-414.33"/>
                        </Array>
                    </mxGeometry>
                </mxCell>
                <mxCell id="76" style="edgeStyle=elbowEdgeStyle;html=1;labelBackgroundColor=#000000;labelBorderColor=#000000;fontSize=14;fontColor=#000000;strokeColor=#000000;rounded=0;entryX=0.03;entryY=0.339;entryDx=0;entryDy=0;entryPerimeter=0;fontFamily=Times New Roman;exitX=0.49;exitY=0.994;exitDx=0;exitDy=0;exitPerimeter=0;" parent="1" source="79" target="68" edge="1">
                    <mxGeometry relative="1" as="geometry">
                        <mxPoint x="-700" y="-530" as="sourcePoint"/>
                        <mxPoint x="-428" y="-306" as="targetPoint"/>
                        <Array as="points">
                            <mxPoint x="-700" y="-310"/>
                            <mxPoint x="-686" y="-321"/>
                        </Array>
                    </mxGeometry>
                </mxCell>
                <mxCell id="78" style="edgeStyle=elbowEdgeStyle;html=1;labelBackgroundColor=#000000;labelBorderColor=#000000;fontSize=14;fontColor=#000000;strokeColor=#000000;rounded=0;fontFamily=Times New Roman;entryX=0;entryY=0.429;entryDx=0;entryDy=0;entryPerimeter=0;exitX=0.141;exitY=1.005;exitDx=0;exitDy=0;exitPerimeter=0;" parent="1" source="79" target="72" edge="1">
                    <mxGeometry relative="1" as="geometry">
                        <mxPoint x="-777" y="-538" as="sourcePoint"/>
                        <mxPoint x="-440" y="-20" as="targetPoint"/>
                        <Array as="points">
                            <mxPoint x="-780" y="-460"/>
                            <mxPoint x="-790" y="-460"/>
                            <mxPoint x="-780" y="-440"/>
                            <mxPoint x="-777" y="-90"/>
                            <mxPoint x="-467" y="-105"/>
                            <mxPoint x="-799" y="-498"/>
                            <mxPoint x="-799" y="-428"/>
                        </Array>
                    </mxGeometry>
                </mxCell>
                <mxCell id="79" value="&lt;font color=&quot;#000000&quot; style=&quot;font-size: 14px;&quot;&gt;&lt;b style=&quot;font-size: 14px;&quot;&gt;CUSTOMER&lt;/b&gt;&lt;/font&gt;" style="html=1;dashed=0;whitespace=wrap;fillColor=#FFFFFF;strokeColor=#000000;fontFamily=Times New Roman;fontSize=14;" parent="1" vertex="1">
                    <mxGeometry x="-809" y="-537" width="220" height="50" as="geometry"/>
                </mxCell>
                <mxCell id="80" value="Login&lt;br style=&quot;font-size: 14px;&quot;&gt;2.0" style="shape=ellipse;html=1;dashed=0;whitespace=wrap;perimeter=ellipsePerimeter;labelBackgroundColor=#FFFFFF;fontSize=14;fontColor=#000000;strokeColor=#000000;fillColor=#FFFFFF;fontStyle=1;fontFamily=Times New Roman;" parent="1" vertex="1">
                    <mxGeometry x="-428" y="-450" width="130" height="70" as="geometry"/>
                </mxCell>
                <mxCell id="81" value="" style="endArrow=classic;html=1;rounded=0;labelBackgroundColor=#000000;labelBorderColor=#000000;fontSize=14;fontColor=#000000;strokeColor=#000000;fontFamily=Times New Roman;entryX=0.671;entryY=-0.07;entryDx=0;entryDy=0;exitX=0.954;exitY=0.286;exitDx=0;exitDy=0;exitPerimeter=0;entryPerimeter=0;" parent="1" edge="1">
                    <mxGeometry width="50" height="50" relative="1" as="geometry">
                        <mxPoint x="-303.98" y="-514.9799999999999" as="sourcePoint"/>
                        <mxPoint x="-46.899999999999864" y="-429.1" as="targetPoint"/>
                        <Array as="points">
                            <mxPoint x="-47" y="-515"/>
                        </Array>
                    </mxGeometry>
                </mxCell>
                <mxCell id="82" value="" style="endArrow=classic;html=1;rounded=0;labelBackgroundColor=#000000;labelBorderColor=#000000;fontSize=14;fontColor=#000000;strokeColor=#000000;fontFamily=Times New Roman;exitX=0.287;exitY=-0.07;exitDx=0;exitDy=0;entryX=0.983;entryY=0.635;entryDx=0;entryDy=0;entryPerimeter=0;exitPerimeter=0;" parent="1" source="94" target="63" edge="1">
                    <mxGeometry width="50" height="50" relative="1" as="geometry">
                        <mxPoint x="-86" y="-489" as="sourcePoint"/>
                        <mxPoint x="-298.52" y="-557.84" as="targetPoint"/>
                        <Array as="points">
                            <mxPoint x="-81" y="-493"/>
                        </Array>
                    </mxGeometry>
                </mxCell>
                <mxCell id="83" value="" style="endArrow=classic;html=1;rounded=0;labelBackgroundColor=#000000;labelBorderColor=#000000;fontSize=14;fontColor=#000000;strokeColor=#000000;fontFamily=Times New Roman;exitX=0.975;exitY=0.35;exitDx=0;exitDy=0;exitPerimeter=0;entryX=-0.005;entryY=0.153;entryDx=0;entryDy=0;entryPerimeter=0;" parent="1" target="94" edge="1">
                    <mxGeometry width="50" height="50" relative="1" as="geometry">
                        <mxPoint x="-300.25" y="-424.5" as="sourcePoint"/>
                        <mxPoint x="-117.80000000000018" y="-423.95000000000005" as="targetPoint"/>
                    </mxGeometry>
                </mxCell>
                <mxCell id="84" value="" style="endArrow=classic;html=1;rounded=0;labelBackgroundColor=#000000;labelBorderColor=#000000;fontSize=14;fontColor=#000000;strokeColor=#000000;fontFamily=Times New Roman;entryX=0.97;entryY=0.663;entryDx=0;entryDy=0;entryPerimeter=0;exitX=-0.022;exitY=0.761;exitDx=0;exitDy=0;exitPerimeter=0;" parent="1" source="94" edge="1">
                    <mxGeometry width="50" height="50" relative="1" as="geometry">
                        <mxPoint x="-118.20000000000005" y="-405.96000000000004" as="sourcePoint"/>
                        <mxPoint x="-301.9000000000001" y="-406.5899999999999" as="targetPoint"/>
                    </mxGeometry>
                </mxCell>
                <mxCell id="85" value="" style="endArrow=classic;html=1;rounded=0;labelBackgroundColor=#000000;labelBorderColor=#000000;fontSize=14;fontColor=#000000;strokeColor=#000000;fontFamily=Times New Roman;entryX=0.242;entryY=1.088;entryDx=0;entryDy=0;exitX=0.98;exitY=0.386;exitDx=0;exitDy=0;exitPerimeter=0;entryPerimeter=0;" parent="1" source="66" target="94" edge="1">
                    <mxGeometry width="50" height="50" relative="1" as="geometry">
                        <mxPoint x="-297.01" y="-342.20000000000005" as="sourcePoint"/>
                        <mxPoint x="-86" y="-402" as="targetPoint"/>
                        <Array as="points">
                            <mxPoint x="-200" y="-343"/>
                            <mxPoint x="-86" y="-343"/>
                        </Array>
                    </mxGeometry>
                </mxCell>
                <mxCell id="86" value="" style="endArrow=classic;html=1;rounded=0;labelBackgroundColor=#000000;labelBorderColor=#000000;fontSize=14;fontColor=#000000;strokeColor=#000000;fontFamily=Times New Roman;exitX=0.638;exitY=1.011;exitDx=0;exitDy=0;entryX=0.978;entryY=0.657;entryDx=0;entryDy=0;entryPerimeter=0;exitPerimeter=0;" parent="1" source="94" target="66" edge="1">
                    <mxGeometry width="50" height="50" relative="1" as="geometry">
                        <mxPoint x="-52" y="-460" as="sourcePoint"/>
                        <mxPoint x="-299" y="-374" as="targetPoint"/>
                        <Array as="points">
                            <mxPoint x="-46" y="-324"/>
                            <mxPoint x="-53" y="-324"/>
                        </Array>
                    </mxGeometry>
                </mxCell>
                <mxCell id="87" value="" style="endArrow=classic;html=1;rounded=0;labelBackgroundColor=#000000;labelBorderColor=#000000;fontSize=14;fontColor=#000000;strokeColor=#000000;fontFamily=Times New Roman;exitX=0.977;exitY=0.329;exitDx=0;exitDy=0;exitPerimeter=0;entryX=-0.02;entryY=0.234;entryDx=0;entryDy=0;entryPerimeter=0;" parent="1" source="68" target="95" edge="1">
                    <mxGeometry width="50" height="50" relative="1" as="geometry">
                        <mxPoint x="-299.91" y="-245.5" as="sourcePoint"/>
                        <mxPoint x="-117.99999999999996" y="-245.5" as="targetPoint"/>
                    </mxGeometry>
                </mxCell>
                <mxCell id="88" value="" style="endArrow=classic;html=1;rounded=0;labelBackgroundColor=#000000;labelBorderColor=#000000;fontSize=14;fontColor=#000000;strokeColor=#000000;fontFamily=Times New Roman;entryX=1.003;entryY=0.551;entryDx=0;entryDy=0;entryPerimeter=0;startArrow=none;exitX=0;exitY=0.75;exitDx=0;exitDy=0;" parent="1" edge="1">
                    <mxGeometry width="50" height="50" relative="1" as="geometry">
                        <mxPoint x="-110" y="-170" as="sourcePoint"/>
                        <mxPoint x="-299.6100000000001" y="-169.42999999999995" as="targetPoint"/>
                    </mxGeometry>
                </mxCell>
                <mxCell id="92" value="" style="endArrow=classic;html=1;rounded=0;labelBackgroundColor=#000000;labelBorderColor=#000000;fontSize=14;fontColor=#000000;strokeColor=#000000;fontFamily=Times New Roman;entryX=0.95;entryY=0.72;entryDx=0;entryDy=0;entryPerimeter=0;exitX=0;exitY=0.83;exitDx=0;exitDy=0;exitPerimeter=0;" parent="1" source="98" target="72" edge="1">
                    <mxGeometry width="50" height="50" relative="1" as="geometry">
                        <mxPoint x="-120" as="sourcePoint"/>
                        <mxPoint x="-318.7" y="-39.22" as="targetPoint"/>
                        <Array as="points">
                            <mxPoint x="-190"/>
                        </Array>
                    </mxGeometry>
                </mxCell>
                <mxCell id="94" value="&lt;b style=&quot;font-size: 14px;&quot;&gt;customer&lt;/b&gt;" style="html=1;dashed=0;whitespace=wrap;shape=partialRectangle;right=0;left=0;labelBackgroundColor=none;fontSize=14;fontColor=#000000;strokeColor=#000000;fillColor=#FFFFFF;fontFamily=Times New Roman;" parent="1" vertex="1">
                    <mxGeometry x="-110" y="-429" width="100" height="30" as="geometry"/>
                </mxCell>
                <mxCell id="95" value="&lt;b style=&quot;font-size: 14px;&quot;&gt;product&lt;/b&gt;" style="html=1;dashed=0;whitespace=wrap;shape=partialRectangle;right=0;left=0;labelBackgroundColor=none;fontSize=14;fontColor=#000000;strokeColor=#000000;fillColor=#FFFFFF;fontFamily=Times New Roman;" parent="1" vertex="1">
                    <mxGeometry x="-110" y="-194.5" width="100" height="30" as="geometry"/>
                </mxCell>
                <mxCell id="97" value="&lt;b style=&quot;font-size: 14px;&quot;&gt;order&lt;/b&gt;" style="html=1;dashed=0;whitespace=wrap;shape=partialRectangle;right=0;left=0;labelBackgroundColor=none;fontSize=14;fontColor=#000000;strokeColor=#000000;fillColor=#FFFFFF;fontFamily=Times New Roman;" parent="1" vertex="1">
                    <mxGeometry x="-110" y="-110" width="100" height="30" as="geometry"/>
                </mxCell>
                <mxCell id="98" value="&lt;b style=&quot;font-size: 14px;&quot;&gt;payment&lt;/b&gt;" style="html=1;dashed=0;whitespace=wrap;shape=partialRectangle;right=0;left=0;labelBackgroundColor=none;fontSize=14;fontColor=#000000;strokeColor=#000000;fillColor=#FFFFFF;fontFamily=Times New Roman;" parent="1" vertex="1">
                    <mxGeometry x="-110" y="-24.5" width="100" height="30" as="geometry"/>
                </mxCell>
                <mxCell id="99" value="&lt;font style=&quot;font-size: 14px;&quot;&gt;Acknowledgement&lt;/font&gt;" style="text;html=1;align=right;verticalAlign=middle;resizable=0;points=[];autosize=1;strokeColor=none;fillColor=none;fontSize=14;fontColor=#000000;fontStyle=1;fontFamily=Times New Roman;" parent="1" vertex="1">
                    <mxGeometry x="-272" y="-513" width="120" height="21" as="geometry"/>
                </mxCell>
                <mxCell id="100" value="&lt;font style=&quot;font-size: 14px;&quot;&gt;Acknowledgement&lt;/font&gt;" style="text;html=1;align=right;verticalAlign=middle;resizable=0;points=[];autosize=1;strokeColor=none;fillColor=none;fontSize=14;fontColor=#000000;fontStyle=1;fontFamily=Times New Roman;" parent="1" vertex="1">
                    <mxGeometry x="-270.5" y="-427" width="120" height="21" as="geometry"/>
                </mxCell>
                <mxCell id="101" value="&lt;font style=&quot;font-size: 14px;&quot;&gt;Acknowledgement&lt;/font&gt;" style="text;html=1;align=right;verticalAlign=middle;resizable=0;points=[];autosize=1;strokeColor=none;fillColor=none;fontSize=14;fontColor=#000000;fontStyle=1;fontFamily=Times New Roman;" parent="1" vertex="1">
                    <mxGeometry x="-270.5" y="-343.5" width="120" height="21" as="geometry"/>
                </mxCell>
                <mxCell id="104" value="&lt;font style=&quot;font-size: 14px;&quot;&gt;Acknowledgement&lt;/font&gt;" style="text;html=1;align=right;verticalAlign=middle;resizable=0;points=[];autosize=1;strokeColor=none;fillColor=none;fontSize=14;fontColor=#000000;fontStyle=1;fontFamily=Times New Roman;" parent="1" vertex="1">
                    <mxGeometry x="-278" y="-20" width="120" height="21" as="geometry"/>
                </mxCell>
                <mxCell id="105" value="&lt;b&gt;username,password&lt;/b&gt;" style="text;html=1;align=center;verticalAlign=middle;resizable=0;points=[];autosize=1;strokeColor=none;fillColor=none;fontSize=14;fontColor=#000000;fontFamily=Times New Roman;" parent="1" vertex="1">
                    <mxGeometry x="-272.5" y="-537" width="129" height="21" as="geometry"/>
                </mxCell>
                <mxCell id="106" value="&lt;b&gt;username,password&lt;/b&gt;" style="text;html=1;align=center;verticalAlign=middle;resizable=0;points=[];autosize=1;strokeColor=none;fillColor=none;fontSize=14;fontColor=#000000;fontFamily=Times New Roman;" parent="1" vertex="1">
                    <mxGeometry x="-270.5" y="-445.5" width="129" height="21" as="geometry"/>
                </mxCell>
                <mxCell id="107" value="&lt;b style=&quot;font-size: 14px&quot;&gt;username,password&lt;/b&gt;" style="text;html=1;align=center;verticalAlign=middle;resizable=0;points=[];autosize=1;strokeColor=none;fillColor=none;fontSize=14;fontColor=#000000;fontFamily=Times New Roman;" parent="1" vertex="1">
                    <mxGeometry x="-575" y="-528" width="129" height="21" as="geometry"/>
                </mxCell>
                <mxCell id="108" value="&lt;span style=&quot;color: rgb(0, 0, 0); font-size: 14px; font-style: normal; font-weight: 700; letter-spacing: normal; text-align: right; text-indent: 0px; text-transform: none; word-spacing: 0px; display: inline; float: none;&quot;&gt;Acknowledgement&lt;/span&gt;" style="text;whiteSpace=wrap;html=1;fontSize=14;fontColor=#000000;fontFamily=Times New Roman;" parent="1" vertex="1">
                    <mxGeometry x="-572.5" y="-512" width="140" height="30" as="geometry"/>
                </mxCell>
                <mxCell id="109" value="&lt;b style=&quot;font-size: 14px;&quot;&gt;username,password&lt;/b&gt;" style="text;html=1;align=center;verticalAlign=middle;resizable=0;points=[];autosize=1;strokeColor=none;fillColor=none;fontSize=14;fontColor=#000000;fontFamily=Times New Roman;" parent="1" vertex="1">
                    <mxGeometry x="-589" y="-443" width="129" height="21" as="geometry"/>
                </mxCell>
                <mxCell id="110" value="&lt;b style=&quot;font-size: 14px;&quot;&gt;Acknowledgement&lt;/b&gt;" style="text;html=1;align=center;verticalAlign=middle;resizable=0;points=[];autosize=1;strokeColor=none;fillColor=none;fontSize=14;fontColor=#000000;fontFamily=Times New Roman;" parent="1" vertex="1">
                    <mxGeometry x="-589" y="-424.5" width="120" height="21" as="geometry"/>
                </mxCell>
                <mxCell id="111" value="&lt;b style=&quot;font-size: 14px;&quot;&gt;Acknowledgement&lt;/b&gt;" style="text;html=1;align=center;verticalAlign=middle;resizable=0;points=[];autosize=1;strokeColor=none;fillColor=none;fontSize=14;fontColor=#000000;fontFamily=Times New Roman;" parent="1" vertex="1">
                    <mxGeometry x="-589" y="-349" width="120" height="21" as="geometry"/>
                </mxCell>
                <mxCell id="113" value="&lt;b style=&quot;font-size: 14px;&quot;&gt;Acknowledgement&lt;/b&gt;" style="text;html=1;align=center;verticalAlign=middle;resizable=0;points=[];autosize=1;strokeColor=none;fillColor=none;fontSize=14;fontColor=#000000;fontFamily=Times New Roman;" parent="1" vertex="1">
                    <mxGeometry x="-589" y="-105.5" width="120" height="21" as="geometry"/>
                </mxCell>
                <mxCell id="114" value="&lt;b style=&quot;font-size: 14px;&quot;&gt;Acknowledgement&lt;/b&gt;" style="text;html=1;align=center;verticalAlign=middle;resizable=0;points=[];autosize=1;strokeColor=none;fillColor=none;fontSize=14;fontColor=#000000;fontFamily=Times New Roman;" parent="1" vertex="1">
                    <mxGeometry x="-589" y="-20" width="120" height="21" as="geometry"/>
                </mxCell>
                <mxCell id="115" value="&lt;b style=&quot;font-size: 14px&quot;&gt;product_id,category_id&lt;/b&gt;" style="text;html=1;align=center;verticalAlign=middle;resizable=0;points=[];autosize=1;strokeColor=none;fillColor=none;fontSize=14;fontColor=#000000;fontFamily=Times New Roman;" parent="1" vertex="1">
                    <mxGeometry x="-611.5" y="-206.5" width="149" height="21" as="geometry"/>
                </mxCell>
                <mxCell id="116" value="&lt;b&gt;product_id,category_id&lt;/b&gt;" style="text;html=1;align=center;verticalAlign=middle;resizable=0;points=[];autosize=1;strokeColor=none;fillColor=none;fontSize=14;fontColor=#000000;fontFamily=Times New Roman;" parent="1" vertex="1">
                    <mxGeometry x="-287" y="-208" width="149" height="21" as="geometry"/>
                </mxCell>
                <mxCell id="117" value="&lt;b style=&quot;color: rgb(0 , 0 , 0)&quot;&gt;username,password&lt;/b&gt;" style="text;html=1;align=center;verticalAlign=middle;resizable=0;points=[];autosize=1;strokeColor=none;fillColor=none;fontFamily=Times New Roman;fontSize=14;" parent="1" vertex="1">
                    <mxGeometry x="-592.5" y="-370" width="129" height="21" as="geometry"/>
                </mxCell>
                <mxCell id="118" value="&lt;b&gt;username,password&lt;/b&gt;" style="text;html=1;align=center;verticalAlign=middle;resizable=0;points=[];autosize=1;strokeColor=none;fillColor=none;fontSize=14;fontColor=#000000;fontFamily=Times New Roman;" parent="1" vertex="1">
                    <mxGeometry x="-276" y="-364.5" width="129" height="21" as="geometry"/>
                </mxCell>
                <mxCell id="121" value="&lt;b&gt;order_id,customer_id&lt;/b&gt;" style="text;html=1;align=center;verticalAlign=middle;resizable=0;points=[];autosize=1;strokeColor=none;fillColor=none;fontSize=14;fontColor=#000000;fontFamily=Times New Roman;" parent="1" vertex="1">
                    <mxGeometry x="-282" y="-126.5" width="139" height="21" as="geometry"/>
                </mxCell>
                <mxCell id="122" value="&lt;b style=&quot;font-size: 14px&quot;&gt;payment_id,order_id&lt;/b&gt;" style="text;html=1;align=center;verticalAlign=middle;resizable=0;points=[];autosize=1;strokeColor=none;fillColor=none;fontSize=14;fontColor=#000000;fontFamily=Times New Roman;" parent="1" vertex="1">
                    <mxGeometry x="-592.5" y="-40" width="136" height="21" as="geometry"/>
                </mxCell>
                <mxCell id="123" value="&lt;b&gt;payment_id,order_id&lt;/b&gt;" style="text;html=1;align=center;verticalAlign=middle;resizable=0;points=[];autosize=1;strokeColor=none;fillColor=none;fontSize=14;fontColor=#000000;fontFamily=Times New Roman;" parent="1" vertex="1">
                    <mxGeometry x="-280.5" y="-37" width="136" height="21" as="geometry"/>
                </mxCell>
                <mxCell id="103" value="&lt;font style=&quot;font-size: 14px;&quot;&gt;Acknowledgement&lt;/font&gt;" style="text;html=1;align=right;verticalAlign=middle;resizable=0;points=[];autosize=1;strokeColor=none;fillColor=none;fontSize=14;fontColor=#000000;fontStyle=1;fontFamily=Times New Roman;" parent="1" vertex="1">
                    <mxGeometry x="-278" y="-106.5" width="120" height="21" as="geometry"/>
                </mxCell>
                <mxCell id="119" value="&lt;b style=&quot;font-size: 14px&quot;&gt;order_id,customer_id&lt;/b&gt;" style="text;html=1;align=center;verticalAlign=middle;resizable=0;points=[];autosize=1;strokeColor=none;fillColor=none;fontSize=14;fontColor=#000000;fontFamily=Times New Roman;" parent="1" vertex="1">
                    <mxGeometry x="-598" y="-124.5" width="139" height="21" as="geometry"/>
                </mxCell>
                <mxCell id="128" value="" style="endArrow=classic;html=1;rounded=0;labelBackgroundColor=#000000;labelBorderColor=#000000;fontSize=14;fontColor=#000000;strokeColor=#000000;fontFamily=Times New Roman;startArrow=none;entryX=0.996;entryY=0.599;entryDx=0;entryDy=0;entryPerimeter=0;exitX=0;exitY=0.75;exitDx=0;exitDy=0;" parent="1" source="97" edge="1">
                    <mxGeometry width="50" height="50" relative="1" as="geometry">
                        <mxPoint x="-120" y="-87" as="sourcePoint"/>
                        <mxPoint x="-298.52" y="-87.07000000000005" as="targetPoint"/>
                        <Array as="points">
                            <mxPoint x="-140" y="-87"/>
                        </Array>
                    </mxGeometry>
                </mxCell>
                <mxCell id="102" value="&lt;font style=&quot;font-size: 14px;&quot;&gt;Acknowledgement&lt;/font&gt;" style="text;html=1;align=right;verticalAlign=middle;resizable=0;points=[];autosize=1;strokeColor=none;fillColor=none;fontSize=14;fontColor=#000000;fontStyle=1;fontFamily=Times New Roman;" parent="1" vertex="1">
                    <mxGeometry x="-272.5" y="-190" width="120" height="21" as="geometry"/>
                </mxCell>
                <mxCell id="130" value="Manage&amp;nbsp;&lt;br&gt;cart&lt;br&gt;4.0" style="shape=ellipse;html=1;dashed=0;whitespace=wrap;perimeter=ellipsePerimeter;labelBackgroundColor=#FFFFFF;fontSize=14;fontColor=#000000;strokeColor=#000000;fillColor=#FFFFFF;fontStyle=1;fontFamily=Times New Roman;" parent="1" vertex="1">
                    <mxGeometry x="-429" y="-290" width="130" height="70" as="geometry"/>
                </mxCell>
                <mxCell id="132" value="" style="endArrow=classic;html=1;rounded=0;labelBackgroundColor=#000000;labelBorderColor=#000000;fontSize=14;fontColor=#000000;strokeColor=#000000;fontFamily=Times New Roman;startArrow=none;exitX=0.985;exitY=0.369;exitDx=0;exitDy=0;exitPerimeter=0;entryX=-0.025;entryY=0.186;entryDx=0;entryDy=0;entryPerimeter=0;" parent="1" source="70" target="97" edge="1">
                    <mxGeometry width="50" height="50" relative="1" as="geometry">
                        <mxPoint x="-160" y="-110" as="sourcePoint"/>
                        <mxPoint x="-120" y="-104" as="targetPoint"/>
                        <Array as="points">
                            <mxPoint x="-170" y="-104"/>
                        </Array>
                    </mxGeometry>
                </mxCell>
                <mxCell id="133" value="" style="endArrow=classic;html=1;rounded=0;labelBackgroundColor=#000000;labelBorderColor=#000000;fontSize=14;fontColor=#000000;strokeColor=#000000;fontFamily=Times New Roman;startArrow=none;entryX=0;entryY=0.25;entryDx=0;entryDy=0;exitX=1;exitY=0.471;exitDx=0;exitDy=0;exitPerimeter=0;" parent="1" source="72" target="98" edge="1">
                    <mxGeometry width="50" height="50" relative="1" as="geometry">
                        <mxPoint x="-130" y="-20" as="sourcePoint"/>
                        <mxPoint x="-300.52" y="-20.069999999999936" as="targetPoint"/>
                        <Array as="points">
                            <mxPoint x="-180" y="-17"/>
                        </Array>
                    </mxGeometry>
                </mxCell>
                <mxCell id="134" value="" style="endArrow=classic;html=1;rounded=0;labelBackgroundColor=#000000;labelBorderColor=#000000;fontSize=14;fontColor=#000000;strokeColor=#000000;fontFamily=Times New Roman;startArrow=none;entryX=0.57;entryY=0.991;entryDx=0;entryDy=0;entryPerimeter=0;exitX=0.037;exitY=0.709;exitDx=0;exitDy=0;exitPerimeter=0;" parent="1" source="130" target="79" edge="1">
                    <mxGeometry width="50" height="50" relative="1" as="geometry">
                        <mxPoint x="-447" y="-310" as="sourcePoint"/>
                        <mxPoint x="-617.52" y="-310.06999999999994" as="targetPoint"/>
                        <Array as="points">
                            <mxPoint x="-550" y="-240"/>
                            <mxPoint x="-682" y="-240"/>
                        </Array>
                    </mxGeometry>
                </mxCell>
                <mxCell id="142" value="" style="endArrow=classic;html=1;rounded=0;labelBackgroundColor=#000000;labelBorderColor=#000000;fontSize=14;fontColor=#000000;strokeColor=#000000;fontFamily=Times New Roman;startArrow=none;entryX=0.007;entryY=0.428;entryDx=0;entryDy=0;entryPerimeter=0;exitX=0.654;exitY=1.007;exitDx=0;exitDy=0;exitPerimeter=0;" parent="1" source="79" target="130" edge="1">
                    <mxGeometry width="50" height="50" relative="1" as="geometry">
                        <mxPoint x="-560" y="-330" as="sourcePoint"/>
                        <mxPoint x="-730.52" y="-330.06999999999994" as="targetPoint"/>
                        <Array as="points">
                            <mxPoint x="-664" y="-260"/>
                            <mxPoint x="-580" y="-260"/>
                        </Array>
                    </mxGeometry>
                </mxCell>
                <mxCell id="143" value="&lt;b style=&quot;font-size: 14px;&quot;&gt;Acknowledgement&lt;/b&gt;" style="text;html=1;align=center;verticalAlign=middle;resizable=0;points=[];autosize=1;strokeColor=none;fillColor=none;fontSize=14;fontColor=#000000;fontFamily=Times New Roman;" parent="1" vertex="1">
                    <mxGeometry x="-589" y="-260" width="120" height="21" as="geometry"/>
                </mxCell>
                <mxCell id="112" value="&lt;b style=&quot;font-size: 14px;&quot;&gt;Acknowledgement&lt;/b&gt;" style="text;html=1;align=center;verticalAlign=middle;resizable=0;points=[];autosize=1;strokeColor=none;fillColor=none;fontSize=14;fontColor=#000000;fontFamily=Times New Roman;" parent="1" vertex="1">
                    <mxGeometry x="-589" y="-185.5" width="120" height="21" as="geometry"/>
                </mxCell>
                <mxCell id="148" value="" style="endArrow=classic;html=1;rounded=0;labelBackgroundColor=#000000;labelBorderColor=#000000;fontSize=14;fontColor=#000000;strokeColor=#000000;fontFamily=Times New Roman;exitX=-0.019;exitY=0.843;exitDx=0;exitDy=0;exitPerimeter=0;" parent="1" source="149" edge="1">
                    <mxGeometry width="50" height="50" relative="1" as="geometry">
                        <mxPoint x="-120" y="-244" as="sourcePoint"/>
                        <mxPoint x="-300" y="-244" as="targetPoint"/>
                        <Array as="points">
                            <mxPoint x="-210" y="-244"/>
                            <mxPoint x="-260" y="-244"/>
                        </Array>
                    </mxGeometry>
                </mxCell>
                <mxCell id="149" value="&lt;b&gt;cart&lt;/b&gt;" style="html=1;dashed=0;whitespace=wrap;shape=partialRectangle;right=0;left=0;labelBackgroundColor=none;fontSize=14;fontColor=#000000;strokeColor=#000000;fillColor=#FFFFFF;fontFamily=Times New Roman;" parent="1" vertex="1">
                    <mxGeometry x="-110" y="-270" width="100" height="30" as="geometry"/>
                </mxCell>
                <mxCell id="150" value="&lt;b&gt;cart_id,customer_id&lt;/b&gt;" style="text;html=1;align=center;verticalAlign=middle;resizable=0;points=[];autosize=1;strokeColor=none;fillColor=none;fontSize=14;fontFamily=Times New Roman;fontColor=#000000;" parent="1" vertex="1">
                    <mxGeometry x="-593" y="-281" width="130" height="21" as="geometry"/>
                </mxCell>
                <mxCell id="151" value="" style="endArrow=classic;html=1;rounded=0;labelBackgroundColor=#000000;labelBorderColor=#000000;fontSize=14;fontColor=#000000;strokeColor=#000000;fontFamily=Times New Roman;entryX=-0.016;entryY=0.255;entryDx=0;entryDy=0;entryPerimeter=0;exitX=0.999;exitY=0.399;exitDx=0;exitDy=0;exitPerimeter=0;" parent="1" source="130" target="149" edge="1">
                    <mxGeometry width="50" height="50" relative="1" as="geometry">
                        <mxPoint x="-290" y="-262" as="sourcePoint"/>
                        <mxPoint x="-119" y="-262" as="targetPoint"/>
                        <Array as="points">
                            <mxPoint x="-159" y="-262"/>
                        </Array>
                    </mxGeometry>
                </mxCell>
                <mxCell id="153" value="&lt;span style=&quot;font-weight: 700 ; text-align: right&quot;&gt;Acknowledgement&lt;/span&gt;" style="text;html=1;align=center;verticalAlign=middle;resizable=0;points=[];autosize=1;strokeColor=none;fillColor=none;fontSize=14;fontFamily=Times New Roman;fontColor=#000000;" parent="1" vertex="1">
                    <mxGeometry x="-277.5" y="-263" width="130" height="20" as="geometry"/>
                </mxCell>
                <mxCell id="154" value="&lt;b&gt;cart_id,customer_id&lt;/b&gt;" style="text;html=1;align=center;verticalAlign=middle;resizable=0;points=[];autosize=1;strokeColor=none;fillColor=none;fontSize=14;fontFamily=Times New Roman;fontColor=#000000;" parent="1" vertex="1">
                    <mxGeometry x="-284.5" y="-282" width="130" height="21" as="geometry"/>
                </mxCell>
                <mxCell id="155" value="" style="endArrow=classic;html=1;exitX=0.026;exitY=0.673;exitDx=0;exitDy=0;exitPerimeter=0;strokeColor=#000000;entryX=0.213;entryY=1.008;entryDx=0;entryDy=0;entryPerimeter=0;rounded=0;" parent="1" source="70" target="79" edge="1">
                    <mxGeometry width="50" height="50" relative="1" as="geometry">
                        <mxPoint x="-503" y="-198" as="sourcePoint"/>
                        <mxPoint x="-704" y="-76" as="targetPoint"/>
                        <Array as="points">
                            <mxPoint x="-762" y="-82"/>
                        </Array>
                    </mxGeometry>
                </mxCell>
                <mxCell id="156" value="" style="endArrow=classic;html=1;rounded=0;strokeColor=#000000;entryX=0.023;entryY=0.312;entryDx=0;entryDy=0;entryPerimeter=0;exitX=0.306;exitY=1.009;exitDx=0;exitDy=0;exitPerimeter=0;" parent="1" source="79" edge="1">
                    <mxGeometry width="50" height="50" relative="1" as="geometry">
                        <mxPoint x="-741.6800000000001" y="-483.7" as="sourcePoint"/>
                        <mxPoint x="-425.01" y="-105.16000000000008" as="targetPoint"/>
                        <Array as="points">
                            <mxPoint x="-742" y="-105"/>
                        </Array>
                    </mxGeometry>
                </mxCell>
                <mxCell id="157" value="" style="endArrow=classic;html=1;rounded=0;strokeColor=#000000;exitX=0.01;exitY=0.68;exitDx=0;exitDy=0;exitPerimeter=0;entryX=0.828;entryY=1.002;entryDx=0;entryDy=0;entryPerimeter=0;" parent="1" target="79" edge="1">
                    <mxGeometry width="50" height="50" relative="1" as="geometry">
                        <mxPoint x="-425.70000000000005" y="-405.4" as="sourcePoint"/>
                        <mxPoint x="-627" y="-476" as="targetPoint"/>
                        <Array as="points">
                            <mxPoint x="-627" y="-405"/>
                        </Array>
                    </mxGeometry>
                </mxCell>
                <mxCell id="158" value="" style="endArrow=classic;html=1;rounded=0;strokeColor=#000000;entryX=0.014;entryY=0.32;entryDx=0;entryDy=0;entryPerimeter=0;exitX=0.872;exitY=1;exitDx=0;exitDy=0;exitPerimeter=0;" parent="1" source="79" edge="1">
                    <mxGeometry width="50" height="50" relative="1" as="geometry">
                        <mxPoint x="-617.0600000000002" y="-481" as="sourcePoint"/>
                        <mxPoint x="-427.18000000000006" y="-421.6" as="targetPoint"/>
                        <Array as="points">
                            <mxPoint x="-617" y="-422"/>
                        </Array>
                    </mxGeometry>
                </mxCell>
            </root>
        </mxGraphModel>
    </diagram>
</mxfile>